<svg width="720" height="518" viewBox="0 0 720 518" fill="none" xmlns="http://www.w3.org/2000/svg">
<g clip-path="url(#clip0_304_578)">
<path d="M375.78 246.086L375.782 246.113L375.785 246.14C376.716 254.582 376.425 262.456 375.899 268.225C375.819 269.102 375.734 269.929 375.646 270.702C375.61 270.62 375.573 270.538 375.536 270.456C373.729 266.487 370.327 261.795 364.009 259.058C357.706 256.327 348.718 255.637 335.922 259.22C323.14 262.798 306.452 270.666 284.626 285.196C255.095 302.365 229.869 308.314 208.67 307.676C187.464 307.037 170.172 299.803 156.519 290.424C142.856 281.036 132.843 269.501 126.241 260.296C122.943 255.697 120.503 251.689 118.89 248.837C118.493 248.135 118.147 247.504 117.85 246.951C147.459 252.005 170.496 251.441 192.29 245.794C214.771 239.97 235.822 228.763 261.294 212.96C278.403 202.839 292.142 195.306 304.246 191.053C316.403 186.781 333.046 183.666 347.189 189.913C361.166 196.087 373.25 211.678 375.78 246.086Z" stroke="white" stroke-width="3"/>
<path d="M343.738 271.432L343.736 271.405L343.733 271.378C342.802 262.936 343.093 255.062 343.619 249.293C343.699 248.416 343.785 247.589 343.872 246.816C343.908 246.898 343.945 246.98 343.982 247.062C345.789 251.031 349.191 255.723 355.509 258.46C361.812 261.191 370.8 261.88 383.596 258.298C396.379 254.719 413.067 246.852 434.892 232.322C464.423 215.153 489.649 209.204 510.848 209.842C532.054 210.481 549.346 217.715 562.999 227.094C576.662 236.482 586.675 248.017 593.277 257.222C596.575 261.821 599.015 265.829 600.628 268.681C601.025 269.383 601.371 270.014 601.668 270.567C572.059 265.513 549.022 266.077 527.228 271.723C504.747 277.548 483.696 288.755 458.224 304.558C441.115 314.679 427.376 322.212 415.273 326.465C403.115 330.737 386.472 333.852 372.329 327.605C358.352 321.43 346.269 305.84 343.738 271.432Z" stroke="white" stroke-width="3"/>
<path d="M372.433 274.78L372.405 274.782L372.378 274.785C363.936 275.715 356.063 275.424 350.293 274.898C349.416 274.818 348.589 274.733 347.816 274.646C347.898 274.61 347.98 274.573 348.063 274.535C352.031 272.728 356.723 269.327 359.461 263.009C362.192 256.705 362.881 247.718 359.298 234.922C355.72 222.139 347.852 205.451 333.322 183.626C316.153 154.094 310.204 128.868 310.842 107.669C311.481 86.4631 318.715 69.171 328.095 55.5189C337.482 41.8551 349.017 31.8422 358.222 25.2407C362.821 21.9423 366.829 19.5022 369.682 17.8894C370.383 17.4927 371.015 17.1462 371.568 16.8494C366.513 46.4588 367.077 69.4958 372.724 91.2895C378.548 113.771 389.755 134.821 405.559 160.293C415.679 177.402 423.212 191.141 427.465 203.245C431.738 215.403 434.853 232.045 428.605 246.188C422.431 260.166 406.84 272.249 372.433 274.78Z" stroke="white" stroke-width="3"/>
<path d="M347.085 242.737L347.113 242.735L347.14 242.732C355.582 241.801 363.456 242.092 369.225 242.619C370.102 242.698 370.929 242.784 371.702 242.871C371.62 242.907 371.538 242.944 371.455 242.982C367.487 244.789 362.795 248.19 360.057 254.508C357.327 260.812 356.637 269.799 360.22 282.595C363.798 295.378 371.666 312.066 386.196 333.891C403.365 363.422 409.314 388.648 408.676 409.848C408.037 431.054 400.803 448.346 391.423 461.998C382.036 475.662 370.501 485.675 361.296 492.276C356.697 495.574 352.689 498.015 349.836 499.627C349.135 500.024 348.503 500.37 347.95 500.667C353.005 471.058 352.441 448.021 346.794 426.227C340.97 403.746 329.763 382.695 313.959 357.224C303.839 340.114 296.306 326.375 292.053 314.272C287.78 302.114 284.665 285.471 290.913 271.329C297.087 257.351 312.678 245.268 347.085 242.737Z" stroke="white" stroke-width="3"/>
<path d="M361.373 243.288L361.394 243.306L361.415 243.323C366.529 247.422 370.669 251.878 373.533 255.317C373.693 255.509 373.849 255.699 374.001 255.884C370.866 254.89 366.717 254.464 362.128 256.279C357.083 258.274 351.728 262.889 346.654 271.909C341.587 280.916 336.745 294.408 332.744 314.345C325.982 339.884 315.446 356.907 303.534 368.122C291.617 379.342 278.239 384.829 265.67 387.161C253.086 389.495 241.319 388.665 232.682 387.243C228.368 386.532 224.846 385.676 222.408 384.999C222.077 384.907 221.766 384.818 221.475 384.734C240.181 371.4 252.377 358.541 261.167 343.603C270.322 328.045 275.726 310.327 281.026 287.701C284.856 272.779 288.249 261.152 292.535 252.222C296.846 243.241 304.211 232.512 315.262 228.232C326.146 224.018 341.182 225.864 361.373 243.288Z" stroke="#A0ECCE" stroke-width="3"/>
<path d="M358.145 274.229L358.124 274.211L358.103 274.194C352.989 270.096 348.849 265.639 345.985 262.2C345.825 262.008 345.669 261.819 345.517 261.633C348.652 262.628 352.801 263.053 357.39 261.239C362.435 259.243 367.79 254.628 372.864 245.609C377.931 236.602 382.773 223.11 386.774 203.172C393.537 177.634 404.072 160.611 415.984 149.396C427.901 138.176 441.279 132.688 453.849 130.357C466.432 128.022 478.199 128.853 486.836 130.275C491.15 130.986 494.672 131.842 497.11 132.519C497.441 132.611 497.752 132.699 498.043 132.784C479.337 146.118 467.141 158.977 458.351 173.915C449.196 189.472 443.792 207.191 438.492 229.816C434.662 244.739 431.269 256.365 426.983 265.295C422.672 274.277 415.307 285.006 404.256 289.285C393.372 293.499 378.336 291.654 358.145 274.229Z" stroke="#A0ECCE" stroke-width="3"/>
<path d="M375.229 260.373L375.211 260.394L375.194 260.415C371.096 265.529 366.639 269.669 363.2 272.532C363.008 272.693 362.819 272.849 362.633 273.001C363.628 269.865 364.053 265.717 362.239 261.128C360.243 256.082 355.628 250.728 346.609 245.654C337.602 240.587 324.11 235.745 304.172 231.744C278.634 224.981 261.611 214.446 250.396 202.534C239.176 190.617 233.688 177.239 231.357 164.669C229.022 152.086 229.853 140.318 231.275 131.682C231.986 127.367 232.842 123.845 233.519 121.408C233.611 121.077 233.699 120.765 233.784 120.475C247.118 139.18 259.977 151.376 274.915 160.167C290.472 169.322 308.191 174.725 330.816 180.025C345.739 183.855 357.365 187.249 366.295 191.535C375.277 195.846 386.006 203.211 390.285 214.262C394.499 225.146 392.654 240.182 375.229 260.373Z" stroke="#A0ECCE" stroke-width="3"/>
<path d="M344.289 257.144L344.307 257.124L344.324 257.103C348.422 251.989 352.879 247.849 356.318 244.985C356.51 244.825 356.699 244.669 356.885 244.517C355.891 247.652 355.465 251.801 357.28 256.39C359.275 261.435 363.89 266.79 372.909 271.864C381.916 276.931 395.408 281.773 415.346 285.774C440.884 292.536 457.907 303.072 469.122 314.984C480.342 326.9 485.83 340.279 488.162 352.848C490.496 365.432 489.665 377.199 488.243 385.836C487.532 390.15 486.676 393.672 485.999 396.11C485.907 396.441 485.819 396.752 485.734 397.043C472.401 378.337 459.542 366.141 444.603 357.351C429.046 348.196 411.327 342.792 388.702 337.492C373.78 333.662 362.153 330.268 353.223 325.983C344.241 321.672 333.512 314.307 329.233 303.256C325.019 292.372 326.864 277.336 344.289 257.144Z" stroke="#A0ECCE" stroke-width="3"/>
</g>
<defs>
<clipPath id="clip0_304_578">
<rect width="720" height="518" fill="white"/>
</clipPath>
</defs>
</svg>
