<svg width="720" height="518" viewBox="0 0 720 518" fill="none" xmlns="http://www.w3.org/2000/svg">
<path d="M522.421 246.427L522.439 246.426L522.457 246.424C528.804 245.724 534.721 245.943 539.057 246.338C539.897 246.415 540.678 246.498 541.389 246.583C541.186 246.666 540.98 246.755 540.772 246.85C537.814 248.197 534.32 250.731 532.281 255.436C530.246 260.133 529.725 266.846 532.408 276.431C535.089 286.008 540.987 298.52 551.889 314.895C564.784 337.076 569.258 356.031 568.778 371.97C568.298 387.912 562.859 400.913 555.809 411.175C548.753 421.445 540.084 428.969 533.168 433.929C529.713 436.407 526.701 438.241 524.557 439.453C523.931 439.807 523.379 440.108 522.912 440.356C526.749 418.026 526.338 400.686 522.09 384.29C517.724 367.437 509.321 351.652 497.462 332.538C489.867 319.697 484.207 309.377 481.011 300.28C477.801 291.147 475.45 278.618 480.159 267.959C484.819 257.41 496.573 248.328 522.421 246.427Z" stroke="#14C38E" stroke-width="2"/>
<path d="M413.219 246.427L413.237 246.426L413.255 246.424C419.601 245.724 425.519 245.943 429.855 246.338C430.695 246.415 431.475 246.498 432.187 246.583C431.984 246.666 431.778 246.755 431.569 246.85C428.612 248.197 425.117 250.731 423.079 255.436C421.044 260.133 420.523 266.846 423.206 276.431C425.887 286.008 431.785 298.52 442.687 314.895C455.582 337.076 460.056 356.031 459.576 371.97C459.096 387.912 453.657 400.913 446.606 411.175C439.551 421.445 430.882 428.969 423.966 433.929C420.511 436.407 417.499 438.241 415.355 439.453C414.729 439.807 414.177 440.108 413.71 440.356C417.547 418.026 417.136 400.686 412.888 384.29C408.522 367.437 400.119 351.652 388.26 332.538C380.665 319.697 375.005 309.377 371.808 300.28C368.599 291.147 366.248 278.618 370.957 267.959C375.616 257.41 387.371 248.328 413.219 246.427Z" stroke="#A0ECCE" stroke-width="2"/>
<path d="M306.223 246.427L306.241 246.426L306.259 246.424C312.605 245.724 318.523 245.943 322.859 246.338C323.699 246.415 324.479 246.498 325.191 246.583C324.988 246.666 324.782 246.755 324.573 246.85C321.615 248.197 318.121 250.731 316.083 255.436C314.048 260.133 313.527 266.846 316.21 276.431C318.891 286.008 324.789 298.52 335.691 314.895C348.586 337.076 353.06 356.031 352.58 371.97C352.1 387.912 346.661 400.913 339.61 411.175C332.555 421.445 323.886 428.969 316.97 433.929C313.514 436.407 310.503 438.241 308.358 439.453C307.733 439.807 307.181 440.108 306.714 440.356C310.551 418.026 310.14 400.686 305.892 384.29C301.526 367.437 293.123 351.652 281.264 332.538C273.669 319.697 268.009 309.377 264.812 300.28C261.603 291.147 259.252 278.618 263.96 267.959C268.62 257.41 280.375 248.328 306.223 246.427Z" stroke="#F2FAF7" stroke-width="2"/>
<path d="M195.917 246.427L195.935 246.426L195.953 246.424C202.3 245.724 208.218 245.943 212.553 246.338C213.393 246.415 214.174 246.498 214.885 246.583C214.682 246.666 214.476 246.755 214.268 246.85C211.31 248.197 207.816 250.731 205.777 255.436C203.742 260.133 203.221 266.846 205.904 276.431C208.585 286.008 214.483 298.52 225.385 314.895C238.28 337.076 242.754 356.031 242.274 371.97C241.794 387.912 236.355 400.913 229.305 411.175C222.249 421.445 213.58 428.969 206.664 433.929C203.209 436.407 200.197 438.241 198.053 439.453C197.427 439.807 196.875 440.108 196.408 440.356C200.246 418.026 199.834 400.686 195.586 384.29C191.22 367.437 182.817 351.652 170.958 332.538C163.363 319.697 157.703 309.377 154.507 300.28C151.297 291.147 148.947 278.618 153.655 267.959C158.315 257.41 170.07 248.328 195.917 246.427Z" stroke="white" stroke-width="2"/>
<path d="M198.413 270.725L198.395 270.726L198.377 270.728C192.03 271.428 186.113 271.209 181.777 270.814C180.937 270.737 180.156 270.654 179.445 270.57C179.648 270.486 179.854 270.397 180.062 270.302C183.02 268.955 186.514 266.422 188.553 261.716C190.588 257.02 191.109 250.306 188.426 240.721C185.745 231.145 179.847 218.632 168.945 202.257C156.05 180.077 151.576 161.121 152.056 145.183C152.536 129.24 157.975 116.24 165.025 105.978C172.081 95.7078 180.75 88.1835 187.666 83.2236C191.121 80.7452 194.133 78.9115 196.277 77.6993C196.903 77.3454 197.455 77.0446 197.922 76.7963C194.085 99.1265 194.496 116.466 198.744 132.862C203.11 149.715 211.513 165.501 223.372 184.615C230.967 197.455 236.627 207.776 239.823 216.873C243.033 226.006 245.384 238.535 240.675 249.193C236.015 259.742 224.261 268.824 198.413 270.725Z" stroke="white" stroke-width="2"/>
<path d="M307.615 270.725L307.597 270.726L307.579 270.728C301.233 271.428 295.315 271.209 290.979 270.814C290.139 270.737 289.359 270.654 288.647 270.57C288.85 270.486 289.056 270.397 289.265 270.302C292.222 268.955 295.717 266.422 297.755 261.716C299.79 257.02 300.311 250.306 297.628 240.721C294.947 231.145 289.049 218.632 278.147 202.257C265.252 180.077 260.778 161.121 261.258 145.183C261.738 129.24 267.177 116.24 274.227 105.978C281.283 95.7078 289.952 88.1835 296.868 83.2236C300.323 80.7452 303.335 78.9115 305.479 77.6993C306.105 77.3454 306.657 77.0446 307.124 76.7963C303.287 99.1265 303.698 116.466 307.946 132.862C312.312 149.715 320.715 165.501 332.574 184.615C340.169 197.455 345.829 207.776 349.026 216.873C352.235 226.006 354.586 238.535 349.877 249.193C345.218 259.742 333.463 268.824 307.615 270.725Z" stroke="#F2FAF7" stroke-width="2"/>
<path d="M414.611 270.725L414.593 270.726L414.575 270.728C408.229 271.428 402.311 271.209 397.975 270.814C397.135 270.737 396.355 270.654 395.643 270.57C395.846 270.486 396.052 270.397 396.261 270.302C399.219 268.955 402.713 266.422 404.751 261.716C406.786 257.02 407.307 250.306 404.624 240.721C401.943 231.145 396.045 218.632 385.143 202.257C372.248 180.077 367.774 161.121 368.254 145.183C368.734 129.24 374.173 116.24 381.224 105.978C388.279 95.7078 396.948 88.1835 403.864 83.2236C407.32 80.7452 410.331 78.9115 412.476 77.6993C413.101 77.3454 413.653 77.0446 414.12 76.7963C410.283 99.1265 410.694 116.466 414.942 132.862C419.308 149.715 427.711 165.501 439.57 184.615C447.165 197.455 452.825 207.776 456.022 216.873C459.231 226.006 461.582 238.535 456.873 249.193C452.214 259.742 440.459 268.824 414.611 270.725Z" stroke="#A0ECCE" stroke-width="2"/>
<path d="M524.917 270.725L524.899 270.726L524.881 270.728C518.534 271.428 512.616 271.209 508.281 270.814C507.441 270.737 506.66 270.654 505.949 270.57C506.152 270.486 506.358 270.397 506.566 270.302C509.524 268.955 513.018 266.422 515.057 261.716C517.092 257.02 517.613 250.306 514.93 240.721C512.249 231.145 506.351 218.632 495.449 202.257C482.553 180.077 478.08 161.121 478.56 145.183C479.04 129.24 484.479 116.24 491.529 105.978C498.585 95.7078 507.254 88.1835 514.17 83.2236C517.625 80.7452 520.637 78.9115 522.781 77.6993C523.407 77.3454 523.959 77.0446 524.426 76.7963C520.588 99.1265 521 116.466 525.248 132.862C529.614 149.715 538.017 165.501 549.876 184.615C557.471 197.455 563.131 207.776 566.327 216.873C569.537 226.006 571.887 238.535 567.179 249.193C562.519 259.742 550.764 268.824 524.917 270.725Z" stroke="#14C38E" stroke-width="2"/>
</svg>
